Motion_kv06_l
version=1
nRows=16
nColumns=43
inDegrees=yes
endheader
time	pelvis_tilt	pelvis_list	pelvis_rotation	pelvis_tx	pelvis_ty	pelvis_tz	hip_flexion_r	hip_adduction_r	hip_rotation_r	knee_angle_r	ankle_angle_r	subtalar_angle_r	mtp_angle_r	hip_flexion_l	hip_adduction_l	hip_rotation_l	knee_angle_l	ankle_angle_l	subtalar_angle_l	mtp_angle_l	lumbar_extension	lumbar_bending	lumbar_rotation	neck_flexion	neck_lateral_bending	neck_rotation	arm_flex_r	arm_add_r	arm_rot_r	elbow_flex_r	pro_sup_r	wrist_flex_r	wrist_dev_r	hand_finger_flex_r	arm_flex_l	arm_add_l	arm_rot_l	elbow_flex_l	pro_sup_l	wrist_flex_l	wrist_dev_l	hand_finger_flex_l
      1.03500000	      3.09876938	      5.67722802	     82.70234985	     -0.02265970	      0.81809176	      0.45729504	     45.36252957	      3.36350604	      1.85743908	    -72.16470990	      8.46727951	     -9.34285540	      4.30327652	     44.69882989	     -6.12207900	      1.94763386	    -73.65482356	      7.14095600	     -1.75215070	     15.23845634	    -29.46027678	      3.18922038	      8.87167644	    -22.21087006	     -0.85958085	     -5.99347134	    -57.70785214	    -18.51443062	    -24.10648817	    103.92999036	    142.85425374	     14.31864306	     -7.92947732	    -18.41417374	   -233.54074113	   -167.14059750	   -212.33099504	    133.50853854	    131.47840941	    -56.75704180	    -17.84710663	     14.73640536
      1.03750000	      3.20155314	      6.13034024	     82.73709199	     -0.02269550	      0.81290439	      0.45715135	     46.32299159	      3.46391734	      1.85897160	    -74.27254901	      7.59017528	     -9.15343541	      4.43881413	     45.55890324	     -6.03878463	      2.19622773	    -75.62884489	      6.61316819	     -1.86947881	     15.37742059	    -30.58077265	      3.16629228	      8.79386085	    -21.08674848	     -0.96836938	     -6.04836964	    -55.48147324	    -18.76914691	    -23.47109300	    102.33250860	    142.75501001	     14.28998765	     -7.63969221	    -18.24342328	   -231.80353603	   -167.25845176	   -211.38965296	    132.57396680	    131.51041266	    -56.62499924	    -17.77811584	     14.59959347
      1.04000000	      3.16616724	      6.26979203	     82.88998313	     -0.02302914	      0.80718149	      0.45694862	     47.63393069	      3.46438153	      1.90691425	    -76.31520142	      6.51628981	     -9.68112130	      5.17649970	     46.75952539	     -5.69829259	      2.47968794	    -77.49085195	      5.75111517	     -2.63546777	     15.91747478	    -31.31357593	      3.12581300	      8.45690231	    -20.02466568	     -1.12429327	     -5.79795538	    -53.21342723	    -19.28312489	    -22.53471614	    100.58253091	    142.07613986	     13.72097329	     -7.24297702	    -17.84435915	   -230.13433181	   -167.35089354	   -210.40798928	    131.43494387	    131.66410806	    -57.09256365	    -17.75589038	     13.91796808
      1.04250000	      3.26900199	      6.73765834	     82.90807723	     -0.02311622	      0.80231410	      0.45676234	     48.51439754	      3.55283077	      1.92838103	    -78.22381425	      5.54791836	     -9.34811014	      5.36943268	     47.47961711	     -5.63285202	      2.69958301	    -79.21719939	      5.22496699	     -2.60623074	     16.07791445	    -32.44361140	      3.11785325	      8.40652334	    -18.95719559	     -1.27247373	     -5.87159539	    -50.95606993	    -19.55184934	    -21.87384420	     98.97465427	    142.10574259	     13.73649878	     -6.89246071	    -17.65729623	   -228.34831967	   -167.39981961	   -209.50583988	    130.42536311	    131.67466048	    -56.81440045	    -17.58624569	     13.77445506
      1.04500000	      3.20300919	      6.86185096	     82.95824003	     -0.02346763	      0.79681019	      0.45654331	     49.77251540	      3.51760589	      2.05256073	    -80.03814834	      4.05073628	     -9.45353056	      9.29349808	     48.54456470	     -5.41478200	      2.81182726	    -80.80649424	      4.24527518	     -3.09736042	     18.74212864	    -33.12953132	      3.01532729	      8.17405799	    -18.06367333	     -1.35949994	     -5.62273263	    -48.70402043	    -20.22218189	    -20.63030684	     97.20392998	    140.98699769	     12.13993783	     -5.92733606	    -15.71870341	   -226.63739049	   -167.48070605	   -208.57036541	    129.30709656	    132.45746208	    -56.45483202	    -16.88989402	     11.48979383
      1.04750000	      3.24309924	      7.34467776	     83.03589851	     -0.02365270	      0.79227683	      0.45639992	     50.51289422	      3.52892919	      2.09261464	    -81.67762767	      3.09401790	     -9.40752140	      9.33317999	     49.13622584	     -5.26517929	      3.01277924	    -82.29308714	      3.67183097	     -3.05268579	     18.79133514	    -34.29465090	      2.98563636	      8.04056340	    -16.86414395	     -1.61841518	     -5.69977106	    -46.38442708	    -20.42610196	    -19.98019297	     95.62433337	    141.35962438	     12.25293720	     -5.68310196	    -15.58670225	   -224.86238153	   -167.42781646	   -207.70986667	    128.28642776	    132.35891522	    -56.13401784	    -16.64756540	     11.36669153
      1.05000000	      3.22384789	      7.75826903	     83.09703195	     -0.02398341	      0.78778787	      0.45624529	     51.26255261	      3.47764875	      2.14799439	    -83.19858798	      2.14312913	     -9.40955204	      9.46263946	     49.72256016	     -5.09139662	      3.13335757	    -83.66073916	      3.13239720	     -3.06055333	     18.90883605	    -35.35322528	      2.92404157	      7.88003194	    -15.80468384	     -1.84070018	     -5.66824525	    -44.06376077	    -20.76702671	    -19.18279287	     94.05026827	    141.77826915	     12.27169817	     -5.35623213	    -15.49810027	   -223.02939043	   -167.35890450	   -206.80500555	    127.16269458	    132.34482640	    -55.90940513	    -16.36133427	     11.08854927
      1.05250000	      3.15015347	      8.13624280	     83.16939016	     -0.02432303	      0.78339469	      0.45609040	     51.98743194	      3.37483729	      2.22799480	    -84.61339770	      1.25354018	     -9.45715102	      9.71330432	     50.27173077	     -4.89845954	      3.20225914	    -84.90739225	      2.62419030	     -3.03794780	     19.12007820	    -36.35425809	      2.82342406	      7.67901188	    -14.79249800	     -2.07904709	     -5.59281060	    -41.71493908	    -21.13988009	    -18.27243568	     92.47834833	    142.26945538	     12.21931287	     -4.96298561	    -15.43290825	   -221.18481070	   -167.25701497	   -205.89250323	    126.01128005	    132.41633850	    -55.70595381	    -15.97870041	     10.64566985
      1.05500000	      3.05042103	      8.50887126	     83.23998186	     -0.02473624	      0.77915533	      0.45586585	     52.62287294	      3.23540089	      2.30953359	    -85.90870925	      0.49848100	     -9.49399124	     10.05852757	     50.76209580	     -4.71455582	      3.22193052	    -86.07443848	      2.21489634	     -2.93856313	     19.41558090	    -37.32781883	      2.72219945	      7.46256131	    -13.86352750	     -2.32309617	     -5.51434312	    -39.37820556	    -21.52965610	    -17.34937016	     90.93074383	    142.80580005	     12.15508919	     -4.55860250	    -15.37720385	   -219.34045741	   -167.09315099	   -204.99336391	    124.82011983	    132.56081153	    -55.42283096	    -15.49135942	     10.09898446
      1.05750000	      2.86613397	      8.91453018	     83.23154009	     -0.02508979	      0.77513142	      0.45566104	     53.15101642	      3.08017636	      2.51741722	    -87.08128905	     -0.41367867	     -9.64597737	     13.70605086	     51.08870923	     -4.55711789	      3.05284950	    -87.05979964	      1.67443166	     -3.15006864	     22.29430968	    -38.32231058	      2.47964757	      7.25955270	    -12.91548929	     -2.45833097	     -5.05122861	    -37.00767099	    -21.91132846	    -16.31816980	     89.33916037	    143.66880086	     11.53661932	     -4.40843864	    -14.63259710	   -217.54249622	   -166.99518534	   -204.19662641	    123.82642147	    134.70990907	    -53.83959778	    -13.28412854	      5.49202963
      1.06000000	      2.80741761	      9.24495548	     83.35073697	     -0.02553018	      0.77113305	      0.45531393	     53.64088168	      2.89340813	      2.49089176	    -88.18619961	     -0.82038028	     -9.63200114	     13.77458238	     51.49271502	     -4.39836942	      3.16201439	    -88.07457479	      1.47509936	     -2.77380305	     22.41087218	    -39.20420623	      2.47673628	      7.12979064	    -12.15268837	     -2.82194134	     -5.29832782	    -34.77496766	    -22.22450788	    -15.46780391	     87.89851292	    144.04346481	     11.72148040	     -4.08135145	    -14.55815882	   -215.63264658	   -166.71012848	   -203.20605316	    122.63239642	    134.47398899	    -53.26086002	    -12.96948806	      5.35017328
      1.06250000	      2.73366090	      9.60878078	     83.44869283	     -0.02592569	      0.76735417	      0.45491745	     54.01685518	      2.69803827	      2.48031146	    -89.21389377	     -1.11857800	     -9.61929489	     13.90713682	     51.77879198	     -4.26497639	      3.21939558	    -89.01055231	      1.40878053	     -2.38064630	     22.61046342	    -40.09885490	      2.44734832	      6.97465033	    -11.46107487	     -3.11150395	     -5.32315626	    -32.50687099	    -22.56539367	    -14.51986323	     86.46961941	    144.58956635	     11.80738996	     -3.78674514	    -14.54358572	   -213.69250300	   -166.41058366	   -202.22079582	    121.39221228	    134.30921553	    -52.77373918	    -12.58024678	      5.00859894
      1.06500000	      2.66014992	      9.99292636	     83.53730408	     -0.02626080	      0.76373195	      0.45444341	     54.28604212	      2.50005978	      2.46804847	    -90.17766546	     -1.23411318	     -9.58204471	     14.11091676	     51.96654578	     -4.15915804	      3.26456619	    -89.87609201	      1.45876753	     -1.92510858	     22.89795539	    -40.98542592	      2.40902215	      6.80626388	    -10.84608870	     -3.38435400	     -5.30094854	    -30.23311389	    -22.92022912	    -13.51466721	     85.05980483	    145.22465342	     11.87094556	     -3.60614434	    -14.55398045	   -211.76421200	   -166.08795434	   -201.21901238	    120.16914149	    134.17493878	    -52.29611458	    -12.11771049	      4.48377573
      1.06750000	      2.60891355	     10.35887026	     83.61289528	     -0.02657359	      0.76014043	      0.45390355	     54.49061750	      2.31275228	      2.44070316	    -91.07031720	     -1.17097666	     -9.49072603	     14.35769808	     52.11953372	     -4.08739588	      3.32044006	    -90.70372089	      1.62063310	     -1.43852170	     23.24497946	    -41.82827302	      2.39023708	      6.66999566	    -10.27078451	     -3.65355147	     -5.26256567	    -28.00861405	    -23.24559103	    -12.53959761	     83.70382909	    145.85291553	     11.96356733	     -3.55874845	    -14.56546340	   -209.83653725	   -165.74321368	   -200.19228721	    118.95884936	    134.03325341	    -51.76642523	    -11.63508246	      3.85753614
      1.07000000	      2.61071035	     10.87106615	     83.62830473	     -0.02681565	      0.75702858	      0.45351132	     54.45884792	      2.18030219	      2.44223224	    -91.87816744	     -1.13044451	     -9.28506347	     16.04753887	     52.01073352	     -4.11131577	      3.36571791	    -91.39474430	      1.66214391	     -0.88460985	     25.67960807	    -42.89925006	      2.35588403	      6.63927452	     -9.40094803	     -3.81160801	     -4.94416962	    -25.86777912	    -23.42990061	    -11.85689918	     82.47243353	    147.44120453	     12.11562669	     -4.20048793	    -14.62226425	   -207.95170546	   -165.53542630	   -199.26662443	    117.93578520	    134.32332788	    -49.52172820	    -10.92397969	     -1.52301253
      1.07250000	      2.58313510	     11.04974215	     83.73395710	     -0.02714396	      0.75315064	      0.45274522	     54.72087645	      1.99781469	      2.36372459	    -92.66146260	     -0.80457089	     -9.24089184	     16.14336869	     52.33193308	     -4.05166377	      3.46447723	    -92.23452934	      1.94230258	     -0.50713545	     25.82469805	    -43.43517897	      2.40726474	      6.53842680	     -9.12650946	     -4.15185856	     -5.19307489	    -23.71881330	    -23.70060109	    -10.91973216	     81.16632801	    147.63964528	     12.39677177	     -4.09900532	    -14.56752010	   -206.03956245	   -165.06856226	   -198.19102786	    116.72503247	    133.93206079	    -48.87486636	    -10.53475283	     -1.65213276
